# xmcd CD database file
#
# Track frame offsets:
#        150
#        24288
#        46400
#        72388
#        96688
#        123188
#        142138
#        168838
#
# Disc length: 2547 seconds
#
# Revision: 0
# Processed by: cddbd v1.5.2PL0 Copyright (c) Steve Scherf et al.
# Submitted via: CUERipper 2.1.6
#
DISCID=6f09f108
DTITLE=Bad Boys Blue - Hot Girls, Bad Boys
DYEAR=1985
DGENRE=
TTITLE0=You're A Woman
TTITLE1=I Live
TTITLE2=Pretty Young Girl
TTITLE3=L.O.V.E. In My Car
TTITLE4=Kiss You All Over, Baby
TTITLE5=Hot Girls - Bad Boys
TTITLE6=For Your Love
TTITLE7=People Of The Night
EXTD=
EXTT0=
EXTT1=
EXTT2=
EXTT3=
EXTT4=
EXTT5=
EXTT6=
EXTT7=
PLAYORDER=
